{"title":"Oldboy (2013) WEBRip","uid":9458603,"size":1467934720,"categoryP":"video","categoryS":"movies","magnet":"?xt=urn:btih:80afebea0bb965e6637af250f95176c0ab49a249&amp;dn=Oldboy+%282013%29+WEBRip&amp;tr=udp%3A%2F%2Ftracker.openbittorrent.com%3A80&amp;tr=udp%3A%2F%2Fopen.demonii.com%3A1337&amp;tr=udp%3A%2F%2Ftracker.coppersurfer.tk%3A6969&amp;tr=udp%3A%2F%2Fexodus.desync.com%3A6969","seeders":1,"leechers":0,"uploader":"yfjfrj","files":-1,"time":1389312312,"description":"Oldboy (2013) WEBRip\nAudio - RUSSIAN!!!\n\nMediaInfo:\nGeneral\nComplete name                            : D:moviesOldboy.2013.WEBRip.avi\nFormat                                   : AVI\nFormat/Info                              : Audio Video Interleave\nFile size                                : 1.37 GiB\nDuration                                 : 1h 40mn\nOverall bit rate                         : 1 953 Kbps\nWriting application                      : VirtualDubMod 1.5.10.2 (build 2540/release)\nWriting library                          : VirtualDubMod build 2540/release\n\nVideo\nID                                       : 0\nFormat                                   : MPEG-4 Visual\nFormat profile                           : Advanced Simple@L5\nFormat settings, BVOP                    : 2\nFormat settings, QPel                    : No\nFormat settings, GMC                     : No warppoints\nFormat settings, Matrix                  : Custom\nCodec ID                                 : XVID\nCodec ID/Hint                            : XviD\nDuration                                 : 1h 40mn\nBit rate                                 : 1 753 Kbps\nWidth                                    : 720 pixels\nHeight                                   : 304 pixels\nDisplay aspect ratio                     : 2.35:1\nFrame rate                               : 20.000 fps\nColor space                              : YUV\nChroma subsampling                       : 4:2:0\nBit depth                                : 8 bits\nScan type                                : Progressive\nCompression mode                         : Lossy\nBits/(Pixel*Frame)                       : 0.400\nStream size                              : 1.23 GiB (90%)\nWriting library                          : XviD 1.2.1 (UTC 2008-12-04)\n\nAudio\nID                                       : 1\nFormat                                   : AC-3\nFormat/Info                              : Audio Coding 3\nMode extension                           : CM (complete main)\nFormat settings, Endianness              : Big\nCodec ID                                 : 2000\nDuration                                 : 1h 40mn\nBit rate mode                            : Constant\nBit rate                                 : 192 Kbps\nChannel(s)                               : 2 channels\nChannel positions                        : Front: L R\nSampling rate                            : 44.1 KHz\nBit depth                                : 16 bits\nCompression mode                         : Lossy\nStream size                              : 138 MiB (10%)\nAlignment                                : Split accross interleaves\nInterleave, duration                     : 50 ms (1.00 video frame)\nInterleave, preload duration             : 500 ms\n\nScreenshot: &lt;a href=&quot;\nhttp://platimzafoto.ru/4n9v.html&quot; rel=&quot;nofollow&quot; target=&quot;_NEW&quot;&gt;\nhttp://platimzafoto.ru/4n9v.html&lt;/a&gt;","torrent":{"xt":"urn:btih:80afebea0bb965e6637af250f95176c0ab49a249","amp;dn":"Oldboy+%282013%29+WEBRip","amp;tr":["udp%3A%2F%2Ftracker.openbittorrent.com%3A80","udp%3A%2F%2Fopen.demonii.com%3A1337","udp%3A%2F%2Ftracker.coppersurfer.tk%3A6969","udp%3A%2F%2Fexodus.desync.com%3A6969"],"infoHash":"80afebea0bb965e6637af250f95176c0ab49a249","infoHashBuffer":{"type":"Buffer","data":[128,175,235,234,11,185,101,230,99,122,242,80,249,81,118,192,171,73,162,73]},"announce":[],"urlList":[]}}